<svg xmlns="http://www.w3.org/2000/svg" 
  viewBox="0 0 26 26"
  preserveAspectRatio="xMinYMid"
  className="acuris-group-logo"
>
  <g fill="none" fillRule="evenodd">
    <path
      className="logo-icon-foreground"
      d="M16.3809058,14.7542438 L11.2380632,11.9332994 C11.0233481,11.8153769 10.7632567,11.8153769 10.5485415,11.9332994 L5.40569891,14.7542438 L2.94856305,18.6970898 L10.8913976,14.1104361 L18.8342322,18.6970898 L16.3809058,14.7542438 Z"
      fill="#8E334D"
    />
    <path
      className="logo-icon-background"
      d="M10.0228286,0.571426948 L0.190475648,19.0685172 C0.0768591302,19.2989734 0.127553648,19.5766438 0.315275059,19.7520842 C0.502996468,19.9275248 0.783457246,19.9593454 1.00571143,19.8304198 L2.94665829,18.6875658 L10.8894928,5.93903074 L18.8323275,18.6875658 L20.7732742,19.8304198 C20.9955285,19.9593454 21.2759892,19.9275248 21.4637107,19.7520842 C21.6514321,19.5766438 21.7021266,19.2989734 21.5885101,19.0685172 L11.7542522,0.571426948 C11.5838254,0.251596058 11.2509451,0.0517854288 10.8885405,0.0517854288 C10.5261358,0.0517854288 10.1932555,0.251596058 10.0228286,0.571426948 Z"
      fill="#D84A57"
    />
  </g>
</svg>